<svg width="100%" height="100%" style="max-width:180px; height:auto;" viewBox="0 0 182 32" fill="none" xmlns="http://www.w3.org/2000/svg"><path d="M29.7201 15.1209L16.0984 7.1959L9.91521 10.7953V13.7117L19.7762 19.4494L16.0984 21.5877L4.98471 15.1209V9.38608L16.0984 2.91928L28.4675 10.1152L29.7201 9.38608V7.925L16.0984 0L2.47656 7.925V16.5791L16.0984 24.507L22.2844 20.9076V17.9912L12.4205 12.2535L16.0984 10.1152L27.212 16.5791L27.2149 22.3168L16.0984 28.7836L3.72921 21.5877L2.47656 22.3168V23.775L16.0984 31.7L29.7201 23.775V15.1209Z" fill="currentColor"></path>
<path d="M178.073 18.4605L176.131 18.0114C175.338 17.8278 174.598 17.4041 174.598 16.6358C174.598 15.7884 175.365 15.1274 176.485 15.1274C177.43 15.1274 178.375 15.7206 178.398 16.6019C178.398 16.6188 178.413 16.6358 178.433 16.6358H180.934C180.955 16.6358 180.972 16.6188 180.969 16.599C180.949 14.0342 178.609 12.9326 176.429 12.9326C173.776 12.9326 171.889 14.5455 171.889 16.5538C171.889 18.3786 172.983 19.5678 175.362 20.1751L177.085 20.5705C178.041 20.7824 178.726 21.2061 178.726 22.0252C178.726 22.9517 177.825 23.6127 176.347 23.6127C174.87 23.6127 174.016 22.7851 173.996 21.8219C173.996 21.8049 173.981 21.788 173.96 21.788H171.541C171.521 21.788 171.503 21.8049 171.506 21.8247C171.582 24.3669 174.004 25.8075 176.374 25.8075C179.001 25.8075 181.405 24.4319 181.405 22.0789C181.405 20.757 180.802 19.1186 178.067 18.4577L178.073 18.4605Z" fill="currentColor"></path>
<path d="M151.61 13.1953C151.582 13.1953 151.557 13.2179 151.557 13.2462V14.424C151.557 14.441 151.554 14.4636 151.523 14.4382C150.419 13.4665 149.016 12.9326 147.567 12.9326C147.559 12.9326 147.55 12.9326 147.542 12.9326C147.533 12.9326 147.525 12.9326 147.516 12.9326C144.089 12.9326 141.313 15.8166 141.313 19.37C141.313 22.9235 144.092 25.8075 147.516 25.8075C147.53 25.8075 147.545 25.8075 147.559 25.8075C147.559 25.8075 147.564 25.8075 147.567 25.8075C149.016 25.8075 150.422 25.268 151.531 24.2906C151.531 24.2906 151.559 24.268 151.559 24.2906V25.5137C151.559 25.5419 151.582 25.5674 151.613 25.5674H154.129C154.157 25.5674 154.182 25.5448 154.182 25.5137V13.2462C154.182 13.2179 154.16 13.1953 154.129 13.1953H151.61ZM147.567 23.4743C145.365 23.4743 143.575 21.6326 143.575 19.37C143.575 17.1075 145.365 15.2658 147.567 15.2658C149.769 15.2658 151.554 17.1018 151.559 19.3587V19.3813C151.554 21.6383 149.764 23.4743 147.567 23.4743Z" fill="currentColor"></path>
<path d="M140.271 23.3315H132.653V6.05286C132.653 6.02349 132.63 6 132.601 6H129.982C129.953 6 129.929 6.02349 129.929 6.05286V25.7546C129.929 25.784 129.953 25.8075 129.982 25.8075H140.271C140.3 25.8075 140.324 25.784 140.324 25.7546V23.3873C140.324 23.358 140.3 23.3345 140.271 23.3345V23.3315Z" fill="currentColor"></path>
<path d="M121.972 13.1312C121.463 12.9998 120.949 12.9326 120.443 12.9326C118.924 12.9326 117.413 13.4991 116.297 14.5299V14.5241L116.273 14.5416L116.253 14.5679L116.253 12.9881C116.253 12.9589 116.23 12.9326 116.197 12.9326H113.651C113.622 12.9326 113.596 12.956 113.596 12.9881L113.596 25.752C113.596 25.7812 113.619 25.8075 113.651 25.8075H116.197C116.227 25.8075 116.253 25.7841 116.253 25.752V19.5905C116.253 17.2515 118.164 15.3476 120.443 15.3476C120.838 15.3476 121.232 15.406 121.612 15.5228C121.627 15.5286 121.641 15.5228 121.656 15.5169C121.668 15.5082 121.677 15.4965 121.679 15.4819L122.01 13.1954C122.013 13.1691 121.998 13.1429 121.972 13.137V13.1312Z" fill="currentColor"></path>
<path d="M95.7252 12.9326H93.3025V8.0362C93.3025 8.00702 93.2795 7.98075 93.2478 7.98075H90.3875C90.3587 7.98075 90.3328 8.0041 90.3328 8.0362V12.9326H87.9098C87.881 12.9326 87.858 12.956 87.858 12.9851V15.3619C87.858 15.3911 87.881 15.4144 87.9098 15.4144H90.3328V25.7581C90.3328 25.7872 90.3558 25.8135 90.3875 25.8135H93.2478C93.2766 25.8135 93.3025 25.7902 93.3025 25.7581V15.4144H95.7252C95.754 15.4144 95.7771 15.3911 95.7771 15.3619V12.9851C95.7771 12.956 95.754 12.9326 95.7252 12.9326Z" fill="currentColor"></path>
<path d="M84.8274 6H81.9793C81.9457 6 81.9185 6.02498 81.9185 6.0558V25.7517C81.9185 25.7825 81.9457 25.8075 81.9793 25.8075H84.8274C84.861 25.8075 84.8882 25.7825 84.8882 25.7517V6.0558C84.8882 6.02498 84.861 6 84.8274 6Z" fill="currentColor"></path>
<path d="M72.6062 12.9326C72.5857 12.9326 72.5624 12.9326 72.542 12.9326C68.9739 12.9326 66.0798 15.8166 66.0798 19.37C66.0798 22.9235 68.9739 25.8075 72.542 25.8075C72.6266 25.8075 72.7112 25.8075 72.7929 25.8018C72.8162 25.8018 72.8396 25.8018 72.8629 25.799C72.9242 25.7962 72.9854 25.7933 73.0467 25.7877C73.073 25.7877 73.0992 25.782 73.1255 25.782C73.1838 25.7764 73.2393 25.7707 73.2976 25.7651C73.3268 25.7623 73.3559 25.7594 73.3822 25.7538C73.423 25.7481 73.461 25.7425 73.5018 25.7368C73.5397 25.7312 73.5806 25.7255 73.6185 25.7199C75.5236 25.3951 77.207 24.2115 78.1581 22.4743C78.1639 22.463 78.1668 22.4461 78.161 22.4348C78.1552 22.4207 78.1464 22.4094 78.1347 22.4037L76.1684 21.4236C76.1421 21.4123 76.1129 21.4207 76.0984 21.4433C75.3573 22.6975 73.9949 23.4771 72.542 23.4771C70.6748 23.4771 69.0498 22.2314 68.5626 20.4378C68.5538 20.3982 68.5917 20.3982 68.5917 20.3982H78.8204C78.8466 20.3982 78.8699 20.3784 78.8758 20.353C78.9254 20.0282 78.9487 19.7005 78.9487 19.3757C78.9487 15.8477 76.11 12.975 72.6062 12.9383V12.9326ZM68.5917 18.3447C68.5596 18.3447 68.5597 18.3221 68.5626 18.308C69.0469 16.5115 70.6719 15.263 72.542 15.263C74.4121 15.263 76.0429 16.5143 76.5243 18.3136C76.5243 18.3249 76.5243 18.3419 76.501 18.3419H68.5917V18.3447Z" fill="currentColor"></path>
<path d="M58.4198 18.884L64.1378 13.0236C64.1525 13.009 64.1584 12.9855 64.1495 12.9649C64.1407 12.9444 64.1231 12.9326 64.0996 12.9326H60.8933C60.8933 12.9326 60.8639 12.9385 60.8551 12.9502L56.5477 17.3689C56.4419 17.4775 56.4331 17.3689 56.4331 17.3689V6.05285C56.4331 6.02349 56.4096 6 56.3802 6H53.7587C53.7294 6 53.7059 6.02349 53.7059 6.05285V25.7517C53.7059 25.781 53.7294 25.8045 53.7587 25.8045H56.3802C56.4096 25.8045 56.4331 25.781 56.4331 25.7517V20.9598C56.4331 20.9129 56.4713 20.8776 56.5154 20.8776C56.536 20.8776 56.5595 20.8864 56.5742 20.9011L61.438 25.7898C61.438 25.7898 61.4615 25.8075 61.4791 25.8075H65.0322C65.0557 25.8075 65.0763 25.7957 65.0851 25.7722C65.0939 25.7517 65.091 25.7282 65.0733 25.7106L58.4227 18.8898L58.4198 18.884Z" fill="currentColor"></path>
<path d="M45.6479 14.9113L43.3067 14.3095C40.9656 13.7077 40.7756 12.4516 40.7756 11.8498C40.7756 10.1292 42.3363 9.06295 44.0871 9.06295C45.9876 9.06295 47.3526 10.249 47.3727 12.0046C47.3727 12.0251 47.3871 12.0397 47.4073 12.0397H50.0824C50.1026 12.0397 50.1199 12.0222 50.117 12.0017C50.0968 8.61016 47.4937 6.49519 44.1677 6.49519C40.8418 6.49519 38.0025 8.59847 38.0025 11.9024C38.0025 13.4594 38.6476 15.8344 42.607 16.8451L44.9769 17.4469C46.4858 17.8559 47.9659 18.6475 47.9659 20.3155C47.9659 21.8726 46.673 23.2368 44.4672 23.2368C42.2615 23.2368 40.6921 21.7002 40.6172 20.1023C40.6172 20.0848 40.6028 20.0702 40.5826 20.0702H37.9046C37.8845 20.0702 37.8672 20.0877 37.8672 20.1081C37.8873 23.1258 40.5222 25.8075 44.4643 25.8075C48.4065 25.8075 50.7361 23.3215 50.7361 20.1812C50.7361 17.4235 48.7722 15.7029 45.6479 14.9113Z" fill="currentColor"></path>
<path d="M104.283 12.9326C104.263 12.9326 104.24 12.9326 104.219 12.9326C100.651 12.9326 97.7571 15.8166 97.7571 19.37C97.7571 22.9235 100.651 25.8075 104.219 25.8075C104.304 25.8075 104.389 25.8075 104.47 25.8018C104.494 25.8018 104.517 25.8018 104.54 25.799C104.601 25.7962 104.663 25.7933 104.724 25.7877C104.75 25.7877 104.777 25.782 104.803 25.782C104.861 25.7764 104.917 25.7707 104.975 25.7651C105.004 25.7623 105.033 25.7594 105.06 25.7538C105.1 25.7481 105.138 25.7425 105.179 25.7368C105.217 25.7312 105.258 25.7255 105.296 25.7199C107.201 25.3951 108.884 24.2115 109.835 22.4743C109.841 22.463 109.844 22.4461 109.838 22.4348C109.832 22.4207 109.824 22.4094 109.812 22.4037L107.846 21.4236C107.819 21.4123 107.79 21.4207 107.776 21.4433C107.035 22.6975 105.672 23.4771 104.219 23.4771C102.352 23.4771 100.727 22.2314 100.24 20.4378C100.231 20.3982 100.269 20.3982 100.269 20.3982H110.498C110.524 20.3982 110.547 20.3784 110.553 20.353C110.603 20.0282 110.626 19.7005 110.626 19.3757C110.626 15.8477 107.787 12.975 104.283 12.9383V12.9326ZM100.269 18.3447C100.237 18.3447 100.237 18.3221 100.24 18.308C100.724 16.5115 102.349 15.263 104.219 15.263C106.089 15.263 107.72 16.5143 108.202 18.3136C108.202 18.3249 108.202 18.3419 108.178 18.3419H100.269V18.3447Z" fill="currentColor"></path>
<path d="M159.724 6C159.752 6 159.778 6.0226 159.778 6.05084V14.4256C159.778 14.4426 159.781 14.4652 159.812 14.4398C160.916 13.4681 162.319 12.9342 163.767 12.9342C163.776 12.9342 163.784 12.9342 163.793 12.9342C163.801 12.9342 163.81 12.9342 163.818 12.9342C167.246 12.9342 170.021 15.8182 170.021 19.3716C170.021 22.9251 167.243 25.8091 163.818 25.8091C163.804 25.8091 163.79 25.8091 163.776 25.8091C163.776 25.8091 163.77 25.8091 163.767 25.8091C162.319 25.8091 160.913 25.2695 159.803 24.2922C159.803 24.2922 159.775 24.2696 159.775 24.2922V25.5153C159.775 25.5435 159.752 25.569 159.721 25.569H157.206C157.178 25.569 157.152 25.5464 157.152 25.5153V6.05084C157.152 6.0226 157.175 6 157.206 6H159.724ZM163.767 23.4759C165.97 23.4759 167.76 21.6342 167.76 19.3716C167.76 17.1091 165.97 15.2674 163.767 15.2674C161.565 15.2674 159.781 17.1034 159.775 19.3603V19.3829C159.781 21.6398 161.571 23.4759 163.767 23.4759Z" fill="currentColor"></path>
</svg>